<?xml version="1.0" encoding="utf-8"?>
<!-- Generator: Adobe Illustrator 24.1.0, SVG Export Plug-In . SVG Version: 6.00 Build 0)  -->
<svg version="1.1" id="Ebene_1" xmlns="http://www.w3.org/2000/svg" xmlns:xlink="http://www.w3.org/1999/xlink" x="0px" y="0px"
	 viewBox="0 0 85 85" style="enable-background:new 0 0 85 85;" xml:space="preserve">
<style type="text/css">
	.st0{fill:#0060FF;}
	.st1{clip-path:url(#SVGID_2_);fill:#FFFFFF;}
</style>
<rect class="st0" width="85" height="85"/>
<g>
	<defs>
		<rect id="SVGID_1_" width="85" height="85"/>
	</defs>
	<clipPath id="SVGID_2_">
		<use xlink:href="#SVGID_1_"  style="overflow:visible;"/>
	</clipPath>
	<path class="st1" d="M19.7,42.5l4.5,4.5l-2.1,0l-4.1-4v4h-1.6V38h1.6v4l4.1-4h2.1L19.7,42.5z M55.6,39.5v2.3h3.7v1.5h-3.7v2.3h4.5
		V47h-6V38h6v1.5H55.6z M49.8,41.3c-0.2,0.2-0.6,0.3-1.1,0.3h-2.2v-2.2h2.2c0.5,0,0.9,0.1,1.1,0.3c0.2,0.2,0.3,0.5,0.3,0.8
		C50.2,40.8,50.1,41.1,49.8,41.3 M49.9,45.2c-0.3,0.2-0.6,0.3-1.1,0.3h-2.2v-2.4h2.1c0.6,0,1,0.1,1.2,0.3c0.2,0.2,0.4,0.5,0.4,0.9
		C50.3,44.7,50.2,45,49.9,45.2 M51.5,43.1c-0.2-0.3-0.4-0.5-0.8-0.7c0.3-0.2,0.5-0.4,0.7-0.7c0.2-0.3,0.3-0.7,0.3-1.2
		c0-0.8-0.3-1.4-0.8-1.9c-0.5-0.4-1.3-0.7-2.2-0.7H45V47h3.8c0.9,0,1.7-0.2,2.2-0.7c0.6-0.5,0.9-1.1,0.9-2
		C51.9,43.9,51.7,43.4,51.5,43.1 M40.9,40.8c0,0.5-0.2,0.9-0.5,1.2c-0.4,0.3-0.8,0.4-1.2,0.4c-0.4,0-1.6,0-1.7,0v-3h1.3
		c0.6,0,1.2,0,1.7,0.3C40.7,39.9,40.9,40.4,40.9,40.8 M40.8,43.4c1-0.4,1.7-1.4,1.7-2.4c0-1.1-0.6-2.1-1.6-2.6
		c-0.6-0.3-1.3-0.4-2-0.4h-3.1V47h1.6v-3.3h1.9l1.9,3.3h1.9L40.8,43.4z M31.4,35.9c0,0.5-0.4,0.9-0.9,0.9c-0.5,0-0.9-0.4-0.9-0.9
		c0-0.5,0.4-0.9,0.9-0.9C31,35,31.4,35.4,31.4,35.9 M28.7,35.9c0,0.5-0.4,0.9-0.9,0.9c-0.5,0-0.9-0.4-0.9-0.9c0-0.5,0.4-0.9,0.9-0.9
		C28.3,35,28.7,35.4,28.7,35.9 M67.3,40.8c0,0.5-0.2,0.9-0.5,1.2c-0.4,0.3-0.8,0.4-1.2,0.4c-0.4,0-1.6,0-1.7,0v-3H65
		c0.6,0,1.2,0,1.7,0.3C67.1,39.9,67.3,40.4,67.3,40.8 M67.2,43.4c1-0.4,1.7-1.4,1.7-2.4c0-1.1-0.6-2.1-1.6-2.6
		c-0.6-0.3-1.3-0.4-2-0.4h-3.1V47h1.6v-3.3h1.9l1.9,3.3h1.9L67.2,43.4z M55.8,60c-4.8,0-9.1-1.9-12.3-5c1.4-1.6,2.5-3.4,3.3-5.3
		h-1.6c-0.7,1.5-1.6,3-2.7,4.2c-1.1-1.3-2-2.7-2.7-4.2h-1.6c0.8,2,1.9,3.8,3.3,5.3c-3.2,3.1-7.5,5-12.3,5c-9.7,0-17.5-7.9-17.5-17.5
		S19.5,25,29.2,25c4.8,0,9.1,1.9,12.3,5c-1.4,1.6-2.5,3.4-3.3,5.3h1.6c0.7-1.5,1.6-3,2.7-4.2c1.1,1.3,2,2.7,2.7,4.2h1.6
		c-0.8-2-1.9-3.8-3.3-5.3c3.2-3.1,7.5-5,12.3-5c9.7,0,17.5,7.9,17.5,17.5S65.5,60,55.8,60 M55.8,23.5c-5.2,0-9.9,2.1-13.3,5.4
		c-3.4-3.4-8.1-5.4-13.3-5.4c-10.5,0-19,8.5-19,19c0,10.5,8.5,19,19,19c5.2,0,9.9-2.1,13.3-5.4c3.4,3.4,8.1,5.4,13.3,5.4
		c10.5,0,19-8.5,19-19C74.9,32,66.3,23.5,55.8,23.5 M29.2,45.7c-1.7,0-3.2-1.4-3.2-3.2c0-1.7,1.4-3.2,3.2-3.2c1.7,0,3.2,1.4,3.2,3.2
		C32.3,44.2,30.9,45.7,29.2,45.7 M29.2,37.8c-2.6,0-4.7,2.1-4.7,4.7c0,2.6,2.1,4.7,4.7,4.7s4.7-2.1,4.7-4.7
		C33.9,39.9,31.8,37.8,29.2,37.8"/>
</g>
</svg>
